<svg width="50" height="50" viewBox="0 0 50 50" fill="none" xmlns="http://www.w3.org/2000/svg">
<g id="arbitrum-arb-logo 1" clip-path="url(#clip0_169_7874)">
<g id="Layer_x0020_1">
<g id="_2405588477232">
<g id="Group">
<g id="Group_2">
<path id="Vector" d="M4.52002 15.2V34.8C4.52002 36.06 5.18002 37.2 6.28002 37.84L23.26 47.64C24.34 48.26 25.68 48.26 26.76 47.64L43.74 37.84C44.82 37.22 45.5 36.06 45.5 34.8V15.2C45.5 13.94 44.84 12.8 43.74 12.16L26.76 2.36002C25.68 1.74002 24.34 1.74002 23.26 2.36002L6.28002 12.16C5.20002 12.78 4.54002 13.94 4.54002 15.2H4.52002Z" fill="#213147"/>
<g id="Group_3">
<g id="Group_4">
<g id="Group_5">
<path id="Vector_2" d="M28.6999 28.8L26.2799 35.44C26.2199 35.62 26.2199 35.82 26.2799 36.02L30.4399 47.44L35.2599 44.66L29.4799 28.8C29.3399 28.44 28.8399 28.44 28.6999 28.8Z" fill="#12AAFF"/>
</g>
<g id="Group_6">
<path id="Vector_3" d="M33.5599 17.64C33.4199 17.28 32.9199 17.28 32.7799 17.64L30.3599 24.28C30.2999 24.46 30.2999 24.66 30.3599 24.86L37.1799 43.56L41.9999 40.78L33.5599 17.66V17.64Z" fill="#12AAFF"/>
</g>
</g>
</g>
<g id="Group_7">
<path id="Vector_4" d="M24.9998 3.1C25.1198 3.1 25.2398 3.14 25.3398 3.2L43.6998 13.8C43.9198 13.92 44.0398 14.16 44.0398 14.4V35.6C44.0398 35.84 43.8998 36.08 43.6998 36.2L25.3398 46.8C25.2398 46.86 25.1198 46.9 24.9998 46.9C24.8798 46.9 24.7598 46.86 24.6598 46.8L6.29984 36.2C6.07984 36.08 5.95984 35.84 5.95984 35.6V14.38C5.95984 14.14 6.09984 13.9 6.29984 13.78L24.6598 3.18C24.7598 3.12 24.8798 3.08 24.9998 3.08V3.1ZM24.9998 0C24.3398 0 23.6998 0.16 23.0998 0.5L4.73984 11.1C3.55984 11.78 2.83984 13.02 2.83984 14.38V35.58C2.83984 36.94 3.55984 38.18 4.73984 38.86L23.0998 49.46C23.6798 49.8 24.3398 49.96 24.9998 49.96C25.6598 49.96 26.2998 49.8 26.8998 49.46L45.2598 38.86C46.4398 38.18 47.1598 36.94 47.1598 35.58V14.38C47.1598 13.02 46.4398 11.78 45.2598 11.1L26.8798 0.5C26.2998 0.16 25.6398 0 24.9798 0H24.9998Z" fill="#9DCCED"/>
</g>
<path id="Vector_5" d="M12.8398 43.58L14.5398 38.94L17.9398 41.76L14.7598 44.68L12.8398 43.58Z" fill="#213147"/>
<g id="Group_8">
<path id="Vector_6" d="M23.44 12.88H18.78C18.44 12.88 18.12 13.1 18 13.42L8.02002 40.78L12.84 43.56L23.84 13.42C23.94 13.14 23.74 12.86 23.46 12.86L23.44 12.88Z" fill="#FDFFFE"/>
<path id="Vector_7" d="M31.6003 12.88H26.9403C26.6003 12.88 26.2803 13.1 26.1603 13.42L14.7603 44.66L19.5803 47.44L31.9803 13.42C32.0803 13.14 31.8803 12.86 31.6003 12.86V12.88Z" fill="#FDFFFE"/>
</g>
</g>
</g>
</g>
</g>
</g>
<defs>
<clipPath id="clip0_169_7874">
<rect width="50" height="50" fill="white"/>
</clipPath>
</defs>
</svg>
