<svg width="50" height="50" viewBox="0 0 50 50" fill="none" xmlns="http://www.w3.org/2000/svg">
<g id="avalanche-avax-logo 1" clip-path="url(#clip0_169_7961)">
<path id="Vector" d="M40.3921 8.57715H9.54102V36.6357H40.3921V8.57715Z" fill="white"/>
<path id="Vector_2" fill-rule="evenodd" clip-rule="evenodd" d="M49.9501 25C49.9501 38.7889 38.7723 49.9668 24.9834 49.9668C11.1946 49.9668 0.0166016 38.7889 0.0166016 25C0.0166016 11.2113 11.1946 0.0332642 24.9834 0.0332642C38.7723 0.0332642 49.9501 11.2113 49.9501 25ZM17.9085 34.9355H13.0631C12.045 34.9355 11.5421 34.9355 11.2354 34.7394C10.9042 34.5246 10.7018 34.1689 10.6773 33.7763C10.6589 33.4146 10.9104 32.9728 11.4133 32.0896L23.377 11.0018C23.8861 10.1064 24.1437 9.65863 24.4688 9.49304C24.8184 9.31518 25.2355 9.31518 25.5851 9.49304C25.9101 9.65863 26.1677 10.1064 26.6768 11.0018L29.1363 15.2952L29.1488 15.3171C29.6986 16.2778 29.9775 16.7649 30.0992 17.2762C30.2341 17.8344 30.2341 18.4232 30.0992 18.9813C29.9765 19.4965 29.7005 19.9872 29.1424 20.9624L22.8581 32.0712L22.8419 32.0997C22.2884 33.0683 22.0079 33.5592 21.6192 33.9295C21.196 34.3345 20.6869 34.6287 20.1288 34.7946C19.6197 34.9355 19.0493 34.9355 17.9085 34.9355ZM30.1446 34.9355H37.0874C38.1117 34.9355 38.627 34.9355 38.9338 34.7334C39.2649 34.5186 39.4734 34.1566 39.492 33.7643C39.5096 33.4142 39.2636 32.9897 38.7816 32.1578C38.7649 32.1295 38.7483 32.1007 38.7314 32.0714L35.2536 26.122L35.2141 26.055C34.7254 25.2286 34.4787 24.8113 34.1619 24.65C33.8125 24.4721 33.4012 24.4721 33.0518 24.65C32.7329 24.8156 32.4753 25.2511 31.9662 26.1281L28.5008 32.0775L28.489 32.098C27.9817 32.9737 27.7282 33.4113 27.7465 33.7703C27.771 34.1629 27.9734 34.5246 28.3046 34.7394C28.6051 34.9355 29.1203 34.9355 30.1446 34.9355Z" fill="#E84142"/>
</g>
<defs>
<clipPath id="clip0_169_7961">
<rect width="49.9668" height="50" fill="white"/>
</clipPath>
</defs>
</svg>
