<svg width="50" height="50" viewBox="0 0 50 50" fill="none" xmlns="http://www.w3.org/2000/svg">
<g id="Layer_x0020_1">
<g id="_1421344023328">
<path id="Vector" d="M49.2464 31.0476C45.9075 44.4406 32.3426 52.5913 18.948 49.2515C5.55903 45.9126 -2.59168 32.3468 0.748713 18.9549C4.08618 5.56048 17.6511 -2.59085 31.0415 0.748085C44.4351 4.08702 52.5854 17.6543 49.2461 31.0479L49.2463 31.0476H49.2464Z" fill="#F7931A"/>
<path id="Vector_2" d="M36.0212 21.4382C36.5188 18.1112 33.9859 16.3229 30.5223 15.1299L31.6459 10.6232L28.9026 9.93964L27.8088 14.3276C27.0876 14.1478 26.3469 13.9783 25.6108 13.8102L26.7126 9.39329L23.9709 8.70972L22.8467 13.2149C22.2499 13.079 21.6637 12.9447 21.095 12.8032L21.0982 12.789L17.3151 11.8443L16.5853 14.7744C16.5853 14.7744 18.6206 15.2409 18.5777 15.2697C19.6886 15.5469 19.8895 16.2823 19.8562 16.8652L18.5763 21.9993C18.6528 22.0188 18.752 22.0469 18.8615 22.0909C18.7699 22.0681 18.6726 22.0433 18.5715 22.0191L16.7775 29.2113C16.6418 29.5488 16.2972 30.0553 15.5205 29.863C15.548 29.9028 13.5266 29.3654 13.5266 29.3654L12.1646 32.5056L15.7346 33.3956C16.3987 33.5622 17.0495 33.7364 17.6905 33.9003L16.5552 38.4586L19.2954 39.1422L20.4196 34.6323C21.1682 34.8355 21.8947 35.0229 22.6059 35.1996L21.4854 39.6883L24.2289 40.3719L25.364 35.8221C30.042 36.7074 33.5594 36.3505 35.04 32.1193C36.233 28.7126 34.9806 26.7477 32.5195 25.4663C34.312 25.0529 35.6622 23.874 36.0222 21.4386L36.0213 21.438L36.0212 21.4382ZM29.7533 30.2274C28.9055 33.634 23.1698 31.7925 21.3102 31.3307L22.8166 25.2917C24.6761 25.7559 30.6394 26.6746 29.7534 30.2274H29.7533ZM30.6017 21.3888C29.8284 24.4875 25.0545 22.9132 23.5058 22.5272L24.8716 17.0502C26.4203 17.4362 31.4074 18.1567 30.602 21.3888H30.6017Z" fill="#FDFFFE"/>
</g>
</g>
</svg>
