<svg width="36" height="36" viewBox="0 0 36 36" fill="none" xmlns="http://www.w3.org/2000/svg">
<g opacity="0.3">
<path d="M5.49984 18.0001C5.49984 11.0965 11.0963 5.50008 17.9998 5.50008C24.9034 5.50008 30.4998 11.0965 30.4998 18.0001C30.4998 24.9036 24.9034 30.5001 17.9998 30.5001C11.0963 30.5001 5.49984 24.9036 5.49984 18.0001Z" stroke="#5AD205" stroke-width="1.66667"/>
</g>
<g opacity="0.1">
<path d="M1.33333 18C1.33333 8.79525 8.79525 1.33333 18 1.33333C27.2047 1.33333 34.6667 8.79525 34.6667 18C34.6667 27.2047 27.2047 34.6667 18 34.6667C8.79525 34.6667 1.33333 27.2047 1.33333 18Z" stroke="#5AD205" stroke-width="1.66667"/>
</g>
<g clip-path="url(#clip0_191_13798)">
<path d="M14.2498 18.0001L16.7498 20.5001L21.7498 15.5001M26.3332 18.0001C26.3332 22.6025 22.6022 26.3334 17.9998 26.3334C13.3975 26.3334 9.6665 22.6025 9.6665 18.0001C9.6665 13.3977 13.3975 9.66675 17.9998 9.66675C22.6022 9.66675 26.3332 13.3977 26.3332 18.0001Z" stroke="#5AD205" stroke-width="1.66667" stroke-linecap="round" stroke-linejoin="round"/>
</g>
<defs>
<clipPath id="clip0_191_13798">
<rect width="20" height="20" fill="white" transform="translate(8 8)"/>
</clipPath>
</defs>
</svg>
