<svg width="50" height="50" viewBox="0 0 50 50" fill="none" xmlns="http://www.w3.org/2000/svg">
<g id="weeth 4" clip-path="url(#clip0_169_7802)">
<path id="rect1" d="M50 25C50 11.1929 38.8071 0 25 0C11.1929 0 0 11.1929 0 25C0 38.8071 11.1929 50 25 50C38.8071 50 50 38.8071 50 25Z" fill="url(#paint0_linear_169_7802)"/>
<path id="rect2" d="M50 25C50 11.1929 38.8071 0 25 0C11.1929 0 0 11.1929 0 25C0 38.8071 11.1929 50 25 50C38.8071 50 50 38.8071 50 25Z" fill="url(#paint1_linear_169_7802)" fill-opacity="0.66"/>
<path id="path2" fill-rule="evenodd" clip-rule="evenodd" d="M36.6303 36.1817C36.6334 36.2024 36.635 36.2234 36.635 36.2447C36.6356 36.4092 36.5511 36.5622 36.4109 36.6486L25.1858 43.5702C25.034 43.6636 24.8431 43.6642 24.6919 43.5709L13.5574 36.7356C13.4173 36.6492 13.332 36.4967 13.3326 36.3321C13.3326 36.3181 13.3332 36.3034 13.3342 36.2893C13.3326 36.2737 13.3326 36.2595 13.3326 36.2442L13.332 27.7042C13.332 27.6932 13.3326 27.6835 13.3332 27.6737C13.3254 27.5499 13.3658 27.4245 13.4535 27.3273C13.6029 27.1618 13.8475 27.1237 14.0396 27.2356L24.9809 33.5856L35.8213 27.297C35.8388 27.286 35.8575 27.2774 35.8761 27.2693C35.9555 27.2079 36.0549 27.1715 36.1634 27.1715C36.4231 27.1715 36.6345 27.3828 36.6345 27.6428L36.6351 36.1156C36.6351 36.1384 36.6334 36.16 36.6303 36.1817ZM14.2747 35.4988L17.5089 33.5447L14.2742 29.0928L14.2747 35.4988ZM18.0647 34.3103C17.1675 34.852 14.7097 36.3369 14.7097 36.3369L23.4236 41.6869L18.0647 34.3103ZM26.6042 41.5886L35.2577 36.2524L31.9141 34.2419L26.6042 41.5886ZM32.468 33.4752L35.6925 35.4141L35.6921 29.0141L32.468 33.4752ZM24.7442 34.5377L15.4943 29.1688L24.98 42.2266L34.378 29.2231L25.217 34.5377C25.0711 34.6224 24.8902 34.6224 24.7442 34.5377ZM13.787 25.4119C13.5342 25.4025 13.3316 25.1958 13.3315 24.9406L13.3306 13.8401C13.3306 13.8125 13.3337 13.7853 13.3384 13.7592C13.3337 13.7337 13.3306 13.7077 13.3306 13.6811C13.33 13.5166 13.4153 13.3635 13.5553 13.2777L24.781 6.39298C24.9316 6.30017 25.1219 6.30017 25.2726 6.39245L36.4071 13.1903C36.5477 13.2761 36.633 13.4292 36.633 13.5937C36.633 13.6015 36.6325 13.6077 36.6325 13.6143C36.6325 13.6221 36.633 13.6284 36.633 13.636L36.634 24.8825C36.634 25.0813 36.5103 25.2517 36.3362 25.3207L25.2075 31.4425C25.0662 31.5202 24.8945 31.5202 24.7532 31.4425L13.787 25.4119ZM14.273 14.5123L14.2736 23.4444L18.2769 16.9195L14.273 14.5123ZM35.6909 14.4276L31.6498 16.8691L35.6916 23.4558L35.6909 14.4276ZM31.1572 16.0656C32.1933 15.4396 35.2542 13.5904 35.2542 13.5904L26.2741 8.10748L31.1572 16.0656ZM23.62 8.2101L14.7096 13.6751L18.7697 16.1166L23.62 8.2101ZM14.5687 24.7663L24.9803 30.4919L35.3898 24.7658L24.9786 7.79801L14.5687 24.7663Z" fill="#D7CDFF"/>
</g>
<defs>
<linearGradient id="paint0_linear_169_7802" x1="3.46438" y1="32.8487" x2="46.7697" y2="17.1006" gradientUnits="userSpaceOnUse">
<stop stop-color="#29BCFA"/>
<stop offset="0.43" stop-color="#6464E4"/>
<stop offset="1" stop-color="#B45AFA"/>
</linearGradient>
<linearGradient id="paint1_linear_169_7802" x1="26.5625" y1="-3.125" x2="25" y2="50" gradientUnits="userSpaceOnUse">
<stop stop-color="#33117B" stop-opacity="0"/>
<stop offset="0.827261" stop-color="#33117B"/>
</linearGradient>
<clipPath id="clip0_169_7802">
<rect width="50" height="50" fill="white"/>
</clipPath>
</defs>
</svg>
