<svg width="52" height="48" viewBox="0 0 52 48" fill="none" xmlns="http://www.w3.org/2000/svg">
<g id="Group">
<path id="Vector" d="M50.0274 0L28.0518 16.2604L32.1383 6.67761L50.0274 0Z" fill="#E17726"/>
<path id="Vector_2" d="M1.23828 0.019043L19.0794 6.67872L22.9598 16.3871L1.23828 0.019043Z" fill="#E27625"/>
<path id="Vector_3" d="M41.1834 34.5813L50.8962 34.7661L47.5017 46.2978L35.6499 43.0346L41.1834 34.5813Z" fill="#E27625"/>
<path id="Vector_4" d="M10.0307 34.5813L15.5437 43.0346L3.71175 46.298L0.337891 34.7662L10.0307 34.5813Z" fill="#E27625"/>
<path id="Vector_5" d="M22.4326 13.9143L22.8297 26.7346L10.9521 26.1942L14.3306 21.0973L14.3734 21.0481L22.4326 13.9143Z" fill="#E27625"/>
<path id="Vector_6" d="M28.6584 13.7712L36.8406 21.0486L36.8829 21.0973L40.2615 26.1942L28.3867 26.7345L28.6584 13.7712Z" fill="#E27625"/>
<path id="Vector_7" d="M15.8915 34.6184L22.377 39.6716L14.8433 43.3089L15.8915 34.6184Z" fill="#E27625"/>
<path id="Vector_8" d="M35.324 34.6177L36.3504 43.309L28.8379 39.6713L35.324 34.6177Z" fill="#E27625"/>
<path id="Vector_9" d="M29.0039 39.1952L36.6274 42.8866L29.536 46.2569L29.6097 44.0293L29.0039 39.1952Z" fill="#D5BFB2"/>
<path id="Vector_10" d="M22.2082 39.1969L21.6262 43.993L21.674 46.2543L14.5659 42.8867L22.2082 39.1969Z" fill="#D5BFB2"/>
<path id="Vector_11" d="M20.0072 28.4077L21.9994 32.5945L15.2168 30.6076L20.0072 28.4077Z" fill="#233447"/>
<path id="Vector_12" d="M31.207 28.4081L36.0199 30.6074L29.2153 32.5938L31.207 28.4081Z" fill="#233447"/>
<path id="Vector_13" d="M16.4101 34.5757L15.3137 43.5861L9.4375 34.7726L16.4101 34.5757Z" fill="#CC6228"/>
<path id="Vector_14" d="M34.8047 34.5757L41.7775 34.7727L35.8792 43.5864L34.8047 34.5757Z" fill="#CC6228"/>
<path id="Vector_15" d="M40.4338 25.6846L35.3593 30.8562L31.4469 29.0683L29.5737 33.0062L28.3457 26.2345L40.4338 25.6846Z" fill="#CC6228"/>
<path id="Vector_16" d="M10.7783 25.6846L22.8685 26.2346L21.6405 33.0063L19.767 29.0689L15.8752 30.8564L10.7783 25.6846Z" fill="#CC6228"/>
<path id="Vector_17" d="M10.436 24.6233L16.1773 30.4491L16.3763 36.2005L10.436 24.6233Z" fill="#E27525"/>
<path id="Vector_18" d="M40.7838 24.6128L34.833 36.2107L35.0571 30.449L40.7838 24.6128Z" fill="#E27525"/>
<path id="Vector_19" d="M22.5873 24.978L22.8183 26.4324L23.3893 30.0556L23.0222 41.1838L21.2867 32.2444L21.2861 32.152L22.5873 24.978Z" fill="#E27525"/>
<path id="Vector_20" d="M28.6238 24.958L29.9284 32.152L29.9278 32.2444L28.188 41.2062L28.1191 38.9646L27.8477 29.9897L28.6238 24.958Z" fill="#E27525"/>
<path id="Vector_21" d="M35.5679 30.2175L35.3736 35.2145L29.3171 39.9333L28.0928 39.0682L29.4652 31.9992L35.5679 30.2175Z" fill="#F5841F"/>
<path id="Vector_22" d="M15.668 30.2178L21.7496 31.9995L23.122 39.0684L21.8976 39.9334L15.8408 35.2142L15.668 30.2178Z" fill="#F5841F"/>
<path id="Vector_23" d="M13.4072 41.7831L21.1558 45.4545L21.123 43.8867L21.7713 43.3177H29.4402L30.112 43.8848L30.0625 45.4515L37.7619 41.7924L34.0154 44.8883L29.485 48H21.7092L17.1818 44.8756L13.4072 41.7831Z" fill="#C0AC9D"/>
<path id="Vector_24" d="M28.4489 38.7067L29.5445 39.4805L30.1865 44.6029L29.2574 43.8184H21.9603L21.0488 44.6187L21.6698 39.4809L22.7657 38.7067H28.4489Z" fill="#161616"/>
<path id="Vector_25" d="M48.5768 0.450073L51.2147 8.36377L49.5673 16.3653L50.7403 17.2703L49.153 18.4814L50.3459 19.4027L48.7662 20.8414L49.7361 21.5438L47.1622 24.5498L36.6053 21.476L36.5138 21.427L28.9062 15.0095L48.5768 0.450073Z" fill="#763E1A"/>
<path id="Vector_26" d="M2.63793 0.450073L22.3085 15.0095L14.701 21.427L14.6095 21.476L4.05247 24.5498L1.47865 21.5438L2.44773 20.8419L0.868743 19.4027L2.05948 18.4824L0.448392 17.2678L1.66572 16.3623L0 8.36407L2.63793 0.450073Z" fill="#763E1A"/>
<path id="Vector_27" d="M36.0884 20.8038L47.2742 24.0605L50.9083 35.2607L41.3209 35.2607L34.7148 35.3441L39.519 25.9799L36.0884 20.8038Z" fill="#F5841F"/>
<path id="Vector_28" d="M15.1258 20.8038L11.6946 25.9799L16.4994 35.3441L9.8966 35.2607H0.326172L3.93985 24.0606L15.1258 20.8038Z" fill="#F5841F"/>
<path id="Vector_29" d="M32.686 6.62415L29.5573 15.0742L28.8934 26.4896L28.6393 30.0675L28.6191 39.2076H22.5952L22.5757 30.0847L22.3208 26.4864L21.6565 15.0742L18.5283 6.62415H32.686Z" fill="#F5841F"/>
</g>
</svg>
