<svg width="48" height="48" viewBox="0 0 48 48" fill="none" xmlns="http://www.w3.org/2000/svg">
<g id="Group">
<path id="Vector" fill-rule="evenodd" clip-rule="evenodd" d="M24 0C37.2562 0 48 10.7438 48 24C48 37.2562 37.2562 48 24 48C10.7438 48 0 37.2562 0 24C0 10.7438 10.7438 0 24 0Z" fill="url(#paint0_radial_191_13760)"/>
<path id="Vector_2" d="M15.2529 18.5344C20.0811 13.8188 27.9186 13.8188 32.7467 18.5344L33.3279 19.1063C33.5717 19.3406 33.5717 19.725 33.3279 19.9594L31.3404 21.9C31.2186 22.0219 31.0217 22.0219 30.8998 21.9L30.1029 21.1219C26.7279 17.8313 21.2717 17.8313 17.8967 21.1219L17.0436 21.9563C16.9217 22.0782 16.7248 22.0782 16.6029 21.9563L14.6154 20.0156C14.3717 19.7813 14.3717 19.3969 14.6154 19.1625L15.2529 18.5344ZM36.8623 22.5469L38.6342 24.2719C38.8779 24.5063 38.8779 24.8906 38.6342 25.125L30.6561 32.9157C30.4123 33.15 30.0186 33.15 29.7842 32.9157L24.1217 27.3844C24.0654 27.3282 23.9623 27.3282 23.9061 27.3844L18.2436 32.9157C17.9998 33.15 17.6061 33.15 17.3717 32.9157L9.36543 25.125C9.12168 24.8906 9.12168 24.5063 9.36543 24.2719L11.1373 22.5469C11.3811 22.3125 11.7748 22.3125 12.0092 22.5469L17.6717 28.0781C17.7279 28.1344 17.8311 28.1344 17.8873 28.0781L23.5498 22.5469C23.7936 22.3125 24.1873 22.3125 24.4217 22.5469L30.0842 28.0781C30.1404 28.1344 30.2436 28.1344 30.2998 28.0781L35.9623 22.5469C36.2248 22.3125 36.6186 22.3125 36.8623 22.5469Z" fill="white"/>
</g>
<defs>
<radialGradient id="paint0_radial_191_13760" cx="0" cy="0" r="1" gradientUnits="userSpaceOnUse" gradientTransform="translate(0.000148773 24.0007) scale(48)">
<stop stop-color="#5D9DF6"/>
<stop offset="1" stop-color="#006FFF"/>
</radialGradient>
</defs>
</svg>
